<mxfile host="Electron" agent="Mozilla/5.0 (X11; Linux x86_64) AppleWebKit/537.36 (KHTML, like Gecko) draw.io/24.7.17 Chrome/128.0.6613.36 Electron/32.0.1 Safari/537.36" version="24.7.17">
  <diagram name="Page-1" id="IVDIDugjC3NZJun2N9fX">
    <mxGraphModel dx="708" dy="598" grid="1" gridSize="10" guides="1" tooltips="1" connect="1" arrows="1" fold="1" page="1" pageScale="1" pageWidth="827" pageHeight="1169" background="#ffffff" math="0" shadow="0">
      <root>
        <mxCell id="0" />
        <mxCell id="1" parent="0" />
        <mxCell id="vxe5powO-zuZCSY9zex0-1" value="Pypi&lt;div&gt;GitHub&lt;/div&gt;" style="ellipse;shape=cloud;whiteSpace=wrap;html=1;fillColor=#1ba1e2;fontColor=#000000;strokeColor=#006EAF;" vertex="1" parent="1">
          <mxGeometry x="250" y="200" width="120" height="80" as="geometry" />
        </mxCell>
        <mxCell id="vxe5powO-zuZCSY9zex0-2" value="DÃ©pendances" style="rounded=1;whiteSpace=wrap;html=1;fillColor=#e3c800;fontColor=#000000;strokeColor=#B09500;" vertex="1" parent="1">
          <mxGeometry x="120" y="300" width="120" height="60" as="geometry" />
        </mxCell>
        <mxCell id="vxe5powO-zuZCSY9zex0-3" value="Standard Library" style="rounded=1;whiteSpace=wrap;html=1;fillColor=#e3c800;fontColor=#000000;strokeColor=#B09500;" vertex="1" parent="1">
          <mxGeometry x="120" y="440" width="120" height="60" as="geometry" />
        </mxCell>
        <mxCell id="vxe5powO-zuZCSY9zex0-24" value="" style="shape=cross;whiteSpace=wrap;html=1;" vertex="1" parent="1">
          <mxGeometry x="160" y="380" width="40" height="40" as="geometry" />
        </mxCell>
        <mxCell id="vxe5powO-zuZCSY9zex0-25" value="" style="shape=singleArrow;whiteSpace=wrap;html=1;" vertex="1" parent="1">
          <mxGeometry x="260" y="385" width="60" height="30" as="geometry" />
        </mxCell>
        <mxCell id="vxe5powO-zuZCSY9zex0-28" value="" style="endArrow=classic;html=1;rounded=0;entryX=0.5;entryY=0;entryDx=0;entryDy=0;exitX=0.16;exitY=0.55;exitDx=0;exitDy=0;exitPerimeter=0;strokeColor=#000000;" edge="1" parent="1" source="vxe5powO-zuZCSY9zex0-1" target="vxe5powO-zuZCSY9zex0-2">
          <mxGeometry width="50" height="50" relative="1" as="geometry">
            <mxPoint x="260" y="340" as="sourcePoint" />
            <mxPoint x="310" y="290" as="targetPoint" />
          </mxGeometry>
        </mxCell>
        <mxCell id="vxe5powO-zuZCSY9zex0-29" value="" style="shape=image;aspect=fixed;image=data:image/svg+xml,PD94bWwgdmVyc2lvbj0iMS4wIiBlbmNvZGluZz0iVVRGLTgiPz4KPHN2ZyB3aWR0aD0iMzg4LjhwdCIgaGVpZ2h0PSIxMTVwdCIgdmVyc2lvbj0iMS4xIiB4bWxucz0iaHR0cDovL3d3dy53My5vcmcvMjAwMC9zdmciIHhtbG5zOmRjPSJodHRwOi8vcHVybC5vcmcvZGMvZWxlbWVudHMvMS4xLyIgeG1sbnM6cmRmPSJodHRwOi8vd3d3LnczLm9yZy8xOTk5LzAyLzIyLXJkZi1zeW50YXgtbnMjIiB4bWxuczp4bGluaz0iaHR0cDovL3d3dy53My5vcmcvMTk5OS94bGluayI+Cjx0aXRsZT5QeXRob24gcHJvZ3JhbW1pbmcgbGFuZ3VhZ2UgbG9nbzwvdGl0bGU+CiA8bWV0YWRhdGE+CiAgPHJkZjpSREY+CiAgICA8ZGM6Zm9ybWF0PmltYWdlL3N2Zyt4bWw8L2RjOmZvcm1hdD4KICAgIDxkYzp0eXBlIHJkZjpyZXNvdXJjZT0iaHR0cDovL3B1cmwub3JnL2RjL2RjbWl0eXBlL1N0aWxsSW1hZ2UiLz4KICAgIDxkYzp0aXRsZS8+CiAgPC9yZGY6UkRGPgogPC9tZXRhZGF0YT4KIDxkZWZzPgogIDxsaW5lYXJHcmFkaWVudCBpZD0idmxwYyIgeDE9IjE1MSIgeDI9IjExMiIgeTE9IjE5Mi40IiB5Mj0iMTM3LjMiIGdyYWRpZW50VHJhbnNmb3JtPSJtYXRyaXgoLjU2MjUgMCAwIC41NjggLTkuNCAtNS4zMDUpIiBncmFkaWVudFVuaXRzPSJ1c2VyU3BhY2VPblVzZSI+CiAgIDxzdG9wIHN0eWxlPSJzdG9wLWNvbG9yOiNmZmQ0M2IiIG9mZnNldD0iMCIvPgogICA8c3RvcCBzdHlsZT0ic3RvcC1jb2xvcjojZmZlODczIiBvZmZzZXQ9IjEiLz4KICA8L2xpbmVhckdyYWRpZW50PgogIDxsaW5lYXJHcmFkaWVudCBpZD0idmxwYiIgeDE9IjI2LjY1IiB4Mj0iMTM1LjciIHkxPSIyMC42IiB5Mj0iMTE0LjQiIGdyYWRpZW50VHJhbnNmb3JtPSJtYXRyaXgoLjU2MjUgMCAwIC41NjggLTkuNCAtNS4zMDUpIiBncmFkaWVudFVuaXRzPSJ1c2VyU3BhY2VPblVzZSI+CiAgIDxzdG9wIHN0eWxlPSJzdG9wLWNvbG9yOiM1YTlmZDQiIG9mZnNldD0iMCIvPgogICA8c3RvcCBzdHlsZT0ic3RvcC1jb2xvcjojMzA2OTk4IiBvZmZzZXQ9IjEiLz4KICA8L2xpbmVhckdyYWRpZW50PgogIDxyYWRpYWxHcmFkaWVudCBpZD0idmxwYSIgY3g9IjYxLjUyIiBjeT0iMTMyLjMiIHI9IjI5LjA0IiBncmFkaWVudFRyYW5zZm9ybT0ibWF0cml4KDIuMzgzZS04IC0uMjk2NCAxLjQzNyA0LjY4NGUtNyAtMTI4LjUgMTUwLjUpIiBncmFkaWVudFVuaXRzPSJ1c2VyU3BhY2VPblVzZSI+CiAgIDxzdG9wIHN0eWxlPSJzdG9wLWNvbG9yOiNiOGI4Yjg7c3RvcC1vcGFjaXR5Oi40OTgiIG9mZnNldD0iMCIvPgogICA8c3RvcCBzdHlsZT0ic3RvcC1jb2xvcjojN2Y3ZjdmO3N0b3Atb3BhY2l0eTowIiBvZmZzZXQ9IjEiLz4KICA8L3JhZGlhbEdyYWRpZW50PgogPC9kZWZzPgogPHBhdGggZD0ibTE4NC42IDYxLjkzYzAtMTQuNTYtNC4xNTItMjIuMDQtMTIuNDYtMjIuNDUtMy4zMDQtMC4xNTYtNi41MzEgMC4zNzA0LTkuNjY5IDEuNTg5LTIuNTA1IDAuODk2Ny00LjE5MSAxLjc4NC01LjA3OCAyLjY4djM0Ljc2YzUuMzEyIDMuMzM0IDEwLjAzIDQuODgzIDE0LjE0IDQuNjQgOC43MDQtMC41NzUxIDEzLjA2LTcuNjQyIDEzLjA2LTIxLjIyem0xMC4yNCAwLjYwNDNjMCA3LjM5OC0xLjczNSAxMy41NC01LjIyNCAxOC40Mi0zLjg4OSA1LjUyNy05LjI3OSA4LjM3My0xNi4xNyA4LjUyOS01LjE5NSAwLjE2NTctMTAuNTUtMS40NjItMTYuMDUtNC44NzR2MzEuNTlsLTguOTA5LTMuMTc4di03MC4xMmMxLjQ2Mi0xLjc5MyAzLjM0My0zLjMzNCA1LjYyNC00LjY0IDUuMzAyLTMuMDkgMTEuNzUtNC42NzkgMTkuMzMtNC43NTdsMC4xMjY3IDAuMTI2N2M2LjkzLTAuMDg3NzMgMTIuMjcgMi43NTggMTYuMDIgOC41MjkgMy40OTkgNS4yOTMgNS4yNTQgMTIuMDggNS4yNTQgMjAuMzd6IiBzdHlsZT0iZmlsbDojNjQ2NDY0Ii8+CiA8cGF0aCBkPSJtMjQ5LjMgODMuMjdjMCA5LjkyMy0wLjk5NDIgMTYuNzktMi45ODMgMjAuNjItMS45OTggMy44MjEtNS44IDYuODcyLTExLjQxIDkuMTQzLTQuNTUyIDEuNzkzLTkuNDc0IDIuNzY4LTE0Ljc2IDIuOTM0bC0xLjQ3Mi01LjYxNGM1LjM3MS0wLjczMSA5LjE1My0xLjQ2MiAxMS4zNS0yLjE5MyA0LjMxOC0xLjQ2MiA3LjI4MS0zLjcwNCA4LjkwOS02LjcwNiAxLjMwNi0yLjQ0NyAxLjk0OS03LjExNSAxLjk0OS0xNC4wM3YtMi4zMmMtNi4wOTIgMi43NjgtMTIuNDggNC4xNDMtMTkuMTUgNC4xNDMtNC4zODYgMC04LjI1Ni0xLjM3NC0xMS41OS00LjE0My0zLjc0My0zLjAxMi01LjYxNC02LjgzMy01LjYxNC0xMS40NnYtMzcuMDhsOC45MDktMy4wNTF2MzcuMzJjMCAzLjk4NyAxLjI4NyA3LjA1NyAzLjg2IDkuMjExIDIuNTczIDIuMTU0IDUuOTA3IDMuMTg3IDkuOTkxIDMuMTA5IDQuMDg0LTAuMDg3NzMgOC40Ni0xLjY2NyAxMy4xMS00Ljc1N3YtNDMuNTRoOC45MDl2NDguNDF6IiBzdHlsZT0iZmlsbDojNjQ2NDY0Ii8+CiA8cGF0aCBkPSJtMjg0LjEgODljLTEuMDYyIDAuMDg3NzItMi4wMzcgMC4xMjY3LTIuOTM0IDAuMTI2Ny01LjAzOSAwLTguOTY3LTEuMTk5LTExLjc3LTMuNjA2LTIuNzk3LTIuNDA4LTQuMjAxLTUuNzMxLTQuMjAxLTkuOTcxdi0zNS4wOWgtNi4xMDJ2LTUuNjA1aDYuMTAydi0xNC44OGw4Ljg5OS0zLjE2OHYxOC4wNWgxMC4wMXY1LjYwNWgtMTAuMDF2MzQuODVjMCAzLjM0MyAwLjg5NjcgNS43MTIgMi42OSA3LjA5NiAxLjU0IDEuMTQgMy45ODcgMS43OTMgNy4zMiAxLjk1OXY0LjY0eiIgc3R5bGU9ImZpbGw6IzY0NjQ2NCIvPgogPHBhdGggZD0ibTMzOCA4OC4yN2gtOC45MDl2LTM0LjM5YzAtMy40OTktMC44MTg4LTYuNTExLTIuNDQ3LTkuMDI2LTEuODgxLTIuODQ2LTQuNDkzLTQuMjY5LTcuODQ2LTQuMjY5LTQuMDg0IDAtOS4xOTIgMi4xNTQtMTUuMzIgNi40NjJ2NDEuMjJoLTguOTA5di04Mi4ybDguOTA5LTIuODA3djM3LjQ0YzUuNjkyLTQuMTQzIDExLjkxLTYuMjE5IDE4LjY3LTYuMjE5IDQuNzE4IDAgOC41MzggMS41ODkgMTEuNDYgNC43NTcgMi45MzQgMy4xNjggNC4zOTYgNy4xMTUgNC4zOTYgMTEuODN2MzcuMTl6IiBzdHlsZT0iZmlsbDojNjQ2NDY0Ii8+CiA8cGF0aCBkPSJtMzg1LjQgNjAuNTNjMC01LjU5NS0xLjA2Mi0xMC4yMS0zLjE3OC0xMy44Ny0yLjUxNS00LjQ1NC02LjQyMy02LjgwMy0xMS43MS03LjA0Ny05Ljc2NyAwLjU2NTMtMTQuNjQgNy41NjQtMTQuNjQgMjAuOTggMCA2LjE1IDEuMDE0IDExLjI5IDMuMDYxIDE1LjQxIDIuNjEyIDUuMjU0IDYuNTMxIDcuODQ2IDExLjc2IDcuNzU5IDkuODA2LTAuMDc3OTggMTQuNzEtNy44MTcgMTQuNzEtMjMuMjN6bTkuNzU3IDAuMDU4NDhjMCA3Ljk2My0yLjAzNyAxNC41OS02LjEwMiAxOS44OC00LjQ3NCA1LjkyNi0xMC42NSA4Ljg5OS0xOC41NCA4Ljg5OS03LjgxNyAwLTEzLjkxLTIuOTczLTE4LjMxLTguODk5LTMuOTg3LTUuMjkzLTUuOTc1LTExLjkyLTUuOTc1LTE5Ljg4IDAtNy40ODYgMi4xNTQtMTMuNzggNi40NjItMTguOTEgNC41NTItNS40MzkgMTAuNTQtOC4xNjggMTcuOTMtOC4xNjggNy4zOTggMCAxMy40MiAyLjcyOSAxOC4wNiA4LjE2OCA0LjMwOCA1LjEyNyA2LjQ2MiAxMS40MiA2LjQ2MiAxOC45MXoiIHN0eWxlPSJmaWxsOiM2NDY0NjQiLz4KIDxwYXRoIGQ9Im00NDYuMiA4OC4yN2gtOC45MDl2LTM2LjM0YzAtMy45ODctMS4xOTktNy4wOTYtMy41OTctOS4zMzgtMi4zOTgtMi4yMzItNS41OTUtMy4zMTQtOS41ODEtMy4yMjYtNC4yMyAwLjA3Nzk4LTguMjU2IDEuNDYyLTEyLjA4IDQuMTQzdjQ0Ljc2aC04LjkwOXYtNDUuODZjNS4xMjctMy43MzMgOS44NDUtNi4xNyAxNC4xNS03LjMxIDQuMDY1LTEuMDYyIDcuNjUxLTEuNTg5IDEwLjc0LTEuNTg5IDIuMTE1IDAgNC4xMDQgMC4yMDQ3IDUuOTc1IDAuNjE0MSAzLjQ5OSAwLjgwOSA2LjM0NSAyLjMxIDguNTM4IDQuNTEzIDIuNDQ3IDIuNDM3IDMuNjY1IDUuMzYxIDMuNjY1IDguNzgydjQwLjg1eiIgc3R5bGU9ImZpbGw6IzY0NjQ2NCIvPgogPHBhdGggZD0ibTYwLjUxIDYuMzk4Yy00LjU4NCAwLjAyMTMtOC45NjEgMC40MTIyLTEyLjgxIDEuMDk0LTExLjM1IDIuMDA1LTEzLjQxIDYuMi0xMy40MSAxMy45NHYxMC4yMmgyNi44MXYzLjQwNmgtMjYuODEtMTAuMDZjLTcuNzkyIDAtMTQuNjIgNC42ODQtMTYuNzUgMTMuNTktMi40NjIgMTAuMjEtMi41NzEgMTYuNTkgMCAyNy4yNSAxLjkwNiA3LjkzOCA2LjQ1OCAxMy41OSAxNC4yNSAxMy41OWg5LjIxOXYtMTIuMjVjMC04Ljg1IDcuNjU3LTE2LjY2IDE2Ljc1LTE2LjY2aDI2Ljc4YzcuNDU1IDAgMTMuNDEtNi4xMzggMTMuNDEtMTMuNjJ2LTI1LjUzYzAtNy4yNjYtNi4xMy0xMi43Mi0xMy40MS0xMy45NC00LjYwNi0wLjc2NjctOS4zODUtMS4xMTUtMTMuOTctMS4wOTR6bS0xNC41IDguMjE5YzIuNzcgMCA1LjAzMSAyLjI5OSA1LjAzMSA1LjEyNS0yZS02IDIuODE2LTIuMjYyIDUuMDk0LTUuMDMxIDUuMDk0LTIuNzc5LTFlLTYgLTUuMDMxLTIuMjc3LTUuMDMxLTUuMDk0LTFlLTYgLTIuODI2IDIuMjUyLTUuMTI1IDUuMDMxLTUuMTI1eiIgc3R5bGU9ImZpbGw6dXJsKCN2bHBiKSIvPgogPHBhdGggZD0ibTkxLjIzIDM1LjA1djExLjkxYzAgOS4yMzEtNy44MjYgMTctMTYuNzUgMTdoLTI2Ljc4Yy03LjMzNiAwLTEzLjQxIDYuMjc4LTEzLjQxIDEzLjYydjI1LjUzYzAgNy4yNjYgNi4zMTkgMTEuNTQgMTMuNDEgMTMuNjIgOC40ODcgMi40OTYgMTYuNjMgMi45NDcgMjYuNzggMCA2Ljc1LTEuOTU0IDEzLjQxLTUuODg4IDEzLjQxLTEzLjYydi0xMC4yMmgtMjYuNzh2LTMuNDA2aDI2Ljc4IDEzLjQxYzcuNzkyIDAgMTAuNy01LjQzNSAxMy40MS0xMy41OSAyLjc5OS04LjM5OSAyLjY4LTE2LjQ4IDAtMjcuMjUtMS45MjYtNy43NTctNS42MDQtMTMuNTktMTMuNDEtMTMuNTloLTEwLjA2em0tMTUuMDYgNjQuNjZjMi43NzkgM2UtNiA1LjAzMSAyLjI3NyA1LjAzMSA1LjA5NC0yZS02IDIuODI2LTIuMjUyIDUuMTI1LTUuMDMxIDUuMTI1LTIuNzcgMC01LjAzMS0yLjI5OS01LjAzMS01LjEyNSAyZS02IC0yLjgxNiAyLjI2Mi01LjA5NCA1LjAzMS01LjA5NHoiIHN0eWxlPSJmaWxsOnVybCgjdmxwYykiLz4KIDxwYXRoIGQ9Im00NjMuNiAyNi45MWgxLjU2MnYtOS43OTZoMy43di0xLjE2OGgtOC45NjJ2MS4xNjhoMy43djkuNzk2bTYuNjQ3IDBoMS4zMzR2LTguOTQ3bDIuODk2IDguOTQ2aDEuNDg2bDMuMDE4LTguOTE2djguOTE3aDEuNDU2di0xMC45NmgtMS45MjZsLTMuMjk4IDkuMzkzLTIuODEzLTkuMzkzaC0yLjE1M3YxMC45NiIgc3R5bGU9ImZpbGw6IzY0NjQ2NCIvPgogPHBhdGggdHJhbnNmb3JtPSJtYXRyaXgoLjczNDEgMCAwIC44MDk1IDE2LjI1IDI3LjAxKSIgZD0ibTExMC41IDEzMi4zYTQ4Ljk1IDguNjA3IDAgMSAxLTk3LjkgMCA0OC45NSA4LjYwNyAwIDEgMSA5Ny45IDB6IiBzdHlsZT0iZmlsbDp1cmwoI3ZscGEpO29wYWNpdHk6LjQ0MzgiLz4KPHNjcmlwdCB4bWxucz0iIi8+PC9zdmc+;" vertex="1" parent="1">
          <mxGeometry x="330" y="370" width="268" height="79.16" as="geometry" />
        </mxCell>
      </root>
    </mxGraphModel>
  </diagram>
</mxfile>
